<?xml version="1.0" standalone="no"?>
<!DOCTYPE svg PUBLIC "-//W3C//DTD SVG 20010904//EN"
 "http://www.w3.org/TR/2001/REC-SVG-20010904/DTD/svg10.dtd">
<svg version="1.0" xmlns="http://www.w3.org/2000/svg"
 width="800.000000pt" height="331.000000pt" viewBox="0 0 800.000000 331.000000"
 preserveAspectRatio="xMidYMid meet">

<g transform="translate(0.000000,331.000000) scale(0.100000,-0.100000)"
fill="#000000" stroke="none">
<path d="M0 1655 l0 -1655 4000 0 4000 0 0 1655 0 1655 -4000 0 -4000 0 0
-1655z m6541 1386 c108 -24 250 -77 326 -122 86 -51 193 -161 231 -239 34 -69
62 -179 62 -246 0 -119 -54 -251 -145 -351 l-56 -62 18 -33 c11 -21 17 -54 17
-93 -1 -72 -27 -130 -87 -192 l-41 -43 428 0 429 0 -7 -97 c-12 -174 -67 -375
-143 -527 -158 -314 -447 -569 -776 -685 -162 -57 -272 -75 -462 -75 -190 0
-300 18 -462 75 -286 101 -545 309 -715 575 -110 172 -189 417 -204 637 l-7
97 431 2 432 3 -55 42 c-70 54 -140 143 -167 213 -29 75 -35 167 -14 209 24
45 88 88 152 101 64 14 85 10 224 -37 169 -58 306 -51 386 20 71 62 83 125 34
181 -70 79 -206 92 -370 36 -193 -65 -382 -32 -458 82 -36 55 -38 141 -4 210
80 163 319 299 597 338 91 13 308 3 406 -19z"/>
<path d="M6128 2854 c-42 -7 -106 -25 -143 -39 -179 -67 -277 -203 -199 -276
35 -32 112 -30 214 6 220 78 476 19 551 -127 47 -92 33 -189 -38 -268 -102
-114 -281 -155 -498 -114 -145 27 -179 28 -199 9 -49 -50 56 -205 183 -269 92
-47 168 -59 346 -53 125 4 174 9 226 26 82 26 159 82 159 116 0 39 -32 50 -99
31 -211 -58 -441 -61 -441 -5 0 26 28 36 140 48 206 23 324 74 440 190 80 81
122 153 141 242 44 206 -149 426 -424 483 -92 19 -253 19 -359 0z"/>
</g>
</svg>
