<?xml version="1.0" standalone="no"?>
<!DOCTYPE svg PUBLIC "-//W3C//DTD SVG 20010904//EN"
 "http://www.w3.org/TR/2001/REC-SVG-20010904/DTD/svg10.dtd">
<svg version="1.0" xmlns="http://www.w3.org/2000/svg"
 width="124.000000pt" height="164.000000pt" viewBox="0 0 124.000000 164.000000"
 preserveAspectRatio="xMidYMid meet">

<g transform="translate(0.000000,164.000000) scale(0.100000,-0.100000)"
fill="#000000" stroke="none">
<path d="M12 787 c3 -678 -8 -616 119 -680 139 -70 343 -101 584 -86 231 14
397 62 474 139 l31 32 0 580 0 580 -35 -31 c-61 -54 -152 -89 -297 -114 -330
-59 -745 7 -854 136 l-24 29 2 -585z m372 83 c22 -8 26 -16 26 -50 0 -38 -1
-39 -26 -30 -14 6 -43 10 -64 10 -30 0 -40 -4 -45 -20 -9 -27 8 -46 64 -75 68
-34 86 -58 86 -117 0 -42 -4 -53 -28 -74 -35 -30 -101 -48 -150 -40 -64 11
-77 22 -77 66 0 44 3 46 40 25 26 -15 77 -19 104 -9 9 3 16 17 16 29 0 19 -13
31 -57 55 -32 17 -67 43 -78 58 -40 55 -16 140 48 167 38 17 105 19 141 5z
m349 -6 c76 -39 107 -93 107 -190 0 -78 -26 -133 -76 -165 l-32 -19 57 -55 56
-55 -62 0 c-60 0 -62 1 -100 43 -25 28 -52 47 -80 55 -110 32 -166 144 -133
264 30 107 167 170 263 122z m267 -149 l0 -155 70 0 70 0 0 -40 0 -40 -120 0
-120 0 0 195 0 195 50 0 50 0 0 -155z"/>
<path d="M602 783 c-22 -9 -42 -61 -42 -110 0 -45 17 -87 44 -105 20 -14 84
-8 105 10 41 34 43 151 4 194 -16 17 -79 24 -111 11z"/>
</g>
</svg>
